<mxfile host="app.diagrams.net" agent="Mozilla/5.0 (Windows NT 10.0; Win64; x64) AppleWebKit/537.36 (KHTML, like Gecko) Chrome/135.0.0.0 Safari/537.36" version="26.2.4">
  <diagram name="Page-1" id="YE_HQxmWjEO1Y7BAYPPF">
    <mxGraphModel dx="2788" dy="975" grid="1" gridSize="10" guides="1" tooltips="1" connect="1" arrows="1" fold="1" page="1" pageScale="1" pageWidth="827" pageHeight="1169" math="0" shadow="0">
      <root>
        <mxCell id="0" />
        <mxCell id="1" parent="0" />
        <mxCell id="1VgsUQ58sX3mkb50u65D-6" value="" style="fontStyle=1;align=center;verticalAlign=middle;childLayout=stackLayout;horizontal=1;horizontalStack=0;resizeParent=1;resizeParentMax=0;resizeLast=0;marginBottom=0;" parent="1" vertex="1">
          <mxGeometry x="280" y="50" width="200" height="136" as="geometry" />
        </mxCell>
        <mxCell id="1VgsUQ58sX3mkb50u65D-7" value="&amp;lt;&amp;lt;requirement&amp;gt;&amp;gt;" style="html=1;align=center;spacing=0;verticalAlign=middle;strokeColor=none;fillColor=none;whiteSpace=wrap;spacingTop=3;" parent="1VgsUQ58sX3mkb50u65D-6" vertex="1">
          <mxGeometry width="200" height="20" as="geometry" />
        </mxCell>
        <mxCell id="1VgsUQ58sX3mkb50u65D-8" value="Générer de l&#39;électricité" style="html=1;align=center;spacing=0;verticalAlign=middle;strokeColor=none;fillColor=none;whiteSpace=wrap;fontStyle=1" parent="1VgsUQ58sX3mkb50u65D-6" vertex="1">
          <mxGeometry y="20" width="200" height="18" as="geometry" />
        </mxCell>
        <mxCell id="1VgsUQ58sX3mkb50u65D-9" value="" style="line;strokeWidth=0.25;fillColor=none;align=left;verticalAlign=middle;spacingTop=-1;spacingLeft=3;spacingRight=3;rotatable=0;labelPosition=right;points=[];portConstraint=eastwest;" parent="1VgsUQ58sX3mkb50u65D-6" vertex="1">
          <mxGeometry y="38" width="200" height="8" as="geometry" />
        </mxCell>
        <mxCell id="1VgsUQ58sX3mkb50u65D-10" value="text=&quot;Le système doit être capable de générer de l&#39;électricité pour l&#39;utilisateur tout en résistant pendant plusieurs années&quot;" style="html=1;align=left;spacing=0;verticalAlign=middle;strokeColor=none;fillColor=none;whiteSpace=wrap;spacingLeft=10;" parent="1VgsUQ58sX3mkb50u65D-6" vertex="1">
          <mxGeometry y="46" width="200" height="60" as="geometry" />
        </mxCell>
        <mxCell id="1VgsUQ58sX3mkb50u65D-11" value="Id=&quot;1&quot;" style="html=1;align=left;spacing=0;verticalAlign=middle;strokeColor=none;fillColor=none;whiteSpace=wrap;spacingLeft=10;" parent="1VgsUQ58sX3mkb50u65D-6" vertex="1">
          <mxGeometry y="106" width="200" height="30" as="geometry" />
        </mxCell>
        <mxCell id="1VgsUQ58sX3mkb50u65D-12" value="" style="html=1;align=center;spacing=0;verticalAlign=middle;strokeColor=none;fillColor=none;whiteSpace=wrap;" parent="1VgsUQ58sX3mkb50u65D-6" vertex="1">
          <mxGeometry y="136" width="200" as="geometry" />
        </mxCell>
        <mxCell id="1VgsUQ58sX3mkb50u65D-13" value="" style="fontStyle=1;align=center;verticalAlign=middle;childLayout=stackLayout;horizontal=1;horizontalStack=0;resizeParent=1;resizeParentMax=0;resizeLast=0;marginBottom=0;" parent="1" vertex="1">
          <mxGeometry x="150" y="250" width="200" height="140" as="geometry" />
        </mxCell>
        <mxCell id="1VgsUQ58sX3mkb50u65D-14" value="&amp;lt;&amp;lt;requirement&amp;gt;&amp;gt;" style="html=1;align=center;spacing=0;verticalAlign=middle;strokeColor=none;fillColor=none;whiteSpace=wrap;spacingTop=3;" parent="1VgsUQ58sX3mkb50u65D-13" vertex="1">
          <mxGeometry width="200" height="20" as="geometry" />
        </mxCell>
        <mxCell id="1VgsUQ58sX3mkb50u65D-15" value="Résister aux conditions" style="html=1;align=center;spacing=0;verticalAlign=middle;strokeColor=none;fillColor=none;whiteSpace=wrap;fontStyle=1" parent="1VgsUQ58sX3mkb50u65D-13" vertex="1">
          <mxGeometry y="20" width="200" height="28" as="geometry" />
        </mxCell>
        <mxCell id="1VgsUQ58sX3mkb50u65D-16" value="" style="line;strokeWidth=0.25;fillColor=none;align=left;verticalAlign=middle;spacingTop=-1;spacingLeft=3;spacingRight=3;rotatable=0;labelPosition=right;points=[];portConstraint=eastwest;" parent="1VgsUQ58sX3mkb50u65D-13" vertex="1">
          <mxGeometry y="48" width="200" height="8" as="geometry" />
        </mxCell>
        <mxCell id="1VgsUQ58sX3mkb50u65D-17" value="text=&quot;Le système doit être capable de résister aux conditions météorologiques et environnemental&quot;" style="html=1;align=left;spacing=0;verticalAlign=middle;strokeColor=none;fillColor=none;whiteSpace=wrap;spacingLeft=10;" parent="1VgsUQ58sX3mkb50u65D-13" vertex="1">
          <mxGeometry y="56" width="200" height="54" as="geometry" />
        </mxCell>
        <mxCell id="1VgsUQ58sX3mkb50u65D-18" value="Id=&quot;1.2&quot;" style="html=1;align=left;spacing=0;verticalAlign=middle;strokeColor=none;fillColor=none;whiteSpace=wrap;spacingLeft=10;" parent="1VgsUQ58sX3mkb50u65D-13" vertex="1">
          <mxGeometry y="110" width="200" height="30" as="geometry" />
        </mxCell>
        <mxCell id="1VgsUQ58sX3mkb50u65D-19" value="" style="html=1;align=center;spacing=0;verticalAlign=middle;strokeColor=none;fillColor=none;whiteSpace=wrap;" parent="1VgsUQ58sX3mkb50u65D-13" vertex="1">
          <mxGeometry y="140" width="200" as="geometry" />
        </mxCell>
        <mxCell id="1VgsUQ58sX3mkb50u65D-20" value="" style="fontStyle=1;align=center;verticalAlign=middle;childLayout=stackLayout;horizontal=1;horizontalStack=0;resizeParent=1;resizeParentMax=0;resizeLast=0;marginBottom=0;" parent="1" vertex="1">
          <mxGeometry x="410" y="250" width="200" height="140" as="geometry" />
        </mxCell>
        <mxCell id="1VgsUQ58sX3mkb50u65D-21" value="&amp;lt;&amp;lt;requirement&amp;gt;&amp;gt;" style="html=1;align=center;spacing=0;verticalAlign=middle;strokeColor=none;fillColor=none;whiteSpace=wrap;spacingTop=3;" parent="1VgsUQ58sX3mkb50u65D-20" vertex="1">
          <mxGeometry width="200" height="20" as="geometry" />
        </mxCell>
        <mxCell id="1VgsUQ58sX3mkb50u65D-22" value="Transmettre les informations" style="html=1;align=center;spacing=0;verticalAlign=middle;strokeColor=none;fillColor=none;whiteSpace=wrap;fontStyle=1" parent="1VgsUQ58sX3mkb50u65D-20" vertex="1">
          <mxGeometry y="20" width="200" height="28" as="geometry" />
        </mxCell>
        <mxCell id="1VgsUQ58sX3mkb50u65D-23" value="" style="line;strokeWidth=0.25;fillColor=none;align=left;verticalAlign=middle;spacingTop=-1;spacingLeft=3;spacingRight=3;rotatable=0;labelPosition=right;points=[];portConstraint=eastwest;" parent="1VgsUQ58sX3mkb50u65D-20" vertex="1">
          <mxGeometry y="48" width="200" height="8" as="geometry" />
        </mxCell>
        <mxCell id="1VgsUQ58sX3mkb50u65D-24" value="text=&quot;Le système doit être capable de transmettre les informations à un technicien pour connaître l&#39;état de la machine&quot;" style="html=1;align=left;spacing=0;verticalAlign=middle;strokeColor=none;fillColor=none;whiteSpace=wrap;spacingLeft=10;" parent="1VgsUQ58sX3mkb50u65D-20" vertex="1">
          <mxGeometry y="56" width="200" height="54" as="geometry" />
        </mxCell>
        <mxCell id="1VgsUQ58sX3mkb50u65D-25" value="Id=&quot;1.3&quot;" style="html=1;align=left;spacing=0;verticalAlign=middle;strokeColor=none;fillColor=none;whiteSpace=wrap;spacingLeft=10;" parent="1VgsUQ58sX3mkb50u65D-20" vertex="1">
          <mxGeometry y="110" width="200" height="30" as="geometry" />
        </mxCell>
        <mxCell id="1VgsUQ58sX3mkb50u65D-26" value="" style="html=1;align=center;spacing=0;verticalAlign=middle;strokeColor=none;fillColor=none;whiteSpace=wrap;" parent="1VgsUQ58sX3mkb50u65D-20" vertex="1">
          <mxGeometry y="140" width="200" as="geometry" />
        </mxCell>
        <mxCell id="1VgsUQ58sX3mkb50u65D-27" value="" style="fontStyle=1;align=center;verticalAlign=middle;childLayout=stackLayout;horizontal=1;horizontalStack=0;resizeParent=1;resizeParentMax=0;resizeLast=0;marginBottom=0;" parent="1" vertex="1">
          <mxGeometry x="660" y="250" width="200" height="140" as="geometry" />
        </mxCell>
        <mxCell id="1VgsUQ58sX3mkb50u65D-28" value="&amp;lt;&amp;lt;PerformanceRequirement&amp;gt;&amp;gt;" style="html=1;align=center;spacing=0;verticalAlign=middle;strokeColor=none;fillColor=none;whiteSpace=wrap;spacingTop=3;" parent="1VgsUQ58sX3mkb50u65D-27" vertex="1">
          <mxGeometry width="200" height="20" as="geometry" />
        </mxCell>
        <mxCell id="1VgsUQ58sX3mkb50u65D-29" value="Générer une quantité minimum" style="html=1;align=center;spacing=0;verticalAlign=middle;strokeColor=none;fillColor=none;whiteSpace=wrap;fontStyle=1" parent="1VgsUQ58sX3mkb50u65D-27" vertex="1">
          <mxGeometry y="20" width="200" height="28" as="geometry" />
        </mxCell>
        <mxCell id="1VgsUQ58sX3mkb50u65D-30" value="" style="line;strokeWidth=0.25;fillColor=none;align=left;verticalAlign=middle;spacingTop=-1;spacingLeft=3;spacingRight=3;rotatable=0;labelPosition=right;points=[];portConstraint=eastwest;" parent="1VgsUQ58sX3mkb50u65D-27" vertex="1">
          <mxGeometry y="48" width="200" height="8" as="geometry" />
        </mxCell>
        <mxCell id="1VgsUQ58sX3mkb50u65D-31" value="text=&quot;Le système doit être capable de générer suffisament d&#39;énergie pour justifier son coût&quot;" style="html=1;align=left;spacing=0;verticalAlign=middle;strokeColor=none;fillColor=none;whiteSpace=wrap;spacingLeft=10;" parent="1VgsUQ58sX3mkb50u65D-27" vertex="1">
          <mxGeometry y="56" width="200" height="54" as="geometry" />
        </mxCell>
        <mxCell id="1VgsUQ58sX3mkb50u65D-32" value="Id=&quot;1.4&quot;" style="html=1;align=left;spacing=0;verticalAlign=middle;strokeColor=none;fillColor=none;whiteSpace=wrap;spacingLeft=10;" parent="1VgsUQ58sX3mkb50u65D-27" vertex="1">
          <mxGeometry y="110" width="200" height="30" as="geometry" />
        </mxCell>
        <mxCell id="1VgsUQ58sX3mkb50u65D-33" value="" style="html=1;align=center;spacing=0;verticalAlign=middle;strokeColor=none;fillColor=none;whiteSpace=wrap;" parent="1VgsUQ58sX3mkb50u65D-27" vertex="1">
          <mxGeometry y="140" width="200" as="geometry" />
        </mxCell>
        <mxCell id="1VgsUQ58sX3mkb50u65D-34" value="" style="fontStyle=1;align=center;verticalAlign=middle;childLayout=stackLayout;horizontal=1;horizontalStack=0;resizeParent=1;resizeParentMax=0;resizeLast=0;marginBottom=0;" parent="1" vertex="1">
          <mxGeometry x="-200" y="60" width="200" height="140" as="geometry" />
        </mxCell>
        <mxCell id="1VgsUQ58sX3mkb50u65D-35" value="&amp;lt;&amp;lt;PhysicalRequirement&amp;gt;&amp;gt;" style="html=1;align=center;spacing=0;verticalAlign=middle;strokeColor=none;fillColor=none;whiteSpace=wrap;spacingTop=3;" parent="1VgsUQ58sX3mkb50u65D-34" vertex="1">
          <mxGeometry width="200" height="20" as="geometry" />
        </mxCell>
        <mxCell id="1VgsUQ58sX3mkb50u65D-36" value="Respecter les dimensions" style="html=1;align=center;spacing=0;verticalAlign=middle;strokeColor=none;fillColor=none;whiteSpace=wrap;fontStyle=1" parent="1VgsUQ58sX3mkb50u65D-34" vertex="1">
          <mxGeometry y="20" width="200" height="28" as="geometry" />
        </mxCell>
        <mxCell id="1VgsUQ58sX3mkb50u65D-37" value="" style="line;strokeWidth=0.25;fillColor=none;align=left;verticalAlign=middle;spacingTop=-1;spacingLeft=3;spacingRight=3;rotatable=0;labelPosition=right;points=[];portConstraint=eastwest;" parent="1VgsUQ58sX3mkb50u65D-34" vertex="1">
          <mxGeometry y="48" width="200" height="8" as="geometry" />
        </mxCell>
        <mxCell id="1VgsUQ58sX3mkb50u65D-38" value="text=&quot;Le système doit respecter les dimensions tout en générant suffisament d&#39;énérgie&quot;" style="html=1;align=left;spacing=0;verticalAlign=middle;strokeColor=none;fillColor=none;whiteSpace=wrap;spacingLeft=10;" parent="1VgsUQ58sX3mkb50u65D-34" vertex="1">
          <mxGeometry y="56" width="200" height="54" as="geometry" />
        </mxCell>
        <mxCell id="1VgsUQ58sX3mkb50u65D-39" value="Id=&quot;1.1&quot;" style="html=1;align=left;spacing=0;verticalAlign=middle;strokeColor=none;fillColor=none;whiteSpace=wrap;spacingLeft=10;" parent="1VgsUQ58sX3mkb50u65D-34" vertex="1">
          <mxGeometry y="110" width="200" height="30" as="geometry" />
        </mxCell>
        <mxCell id="1VgsUQ58sX3mkb50u65D-40" value="" style="html=1;align=center;spacing=0;verticalAlign=middle;strokeColor=none;fillColor=none;whiteSpace=wrap;" parent="1VgsUQ58sX3mkb50u65D-34" vertex="1">
          <mxGeometry y="140" width="200" as="geometry" />
        </mxCell>
        <mxCell id="1VgsUQ58sX3mkb50u65D-46" style="edgeStyle=orthogonalEdgeStyle;rounded=0;orthogonalLoop=1;jettySize=auto;html=1;exitX=0.5;exitY=0;exitDx=0;exitDy=0;entryX=0;entryY=0.25;entryDx=0;entryDy=0;endArrow=circlePlus;endFill=0;" parent="1" source="1VgsUQ58sX3mkb50u65D-35" target="1VgsUQ58sX3mkb50u65D-11" edge="1">
          <mxGeometry relative="1" as="geometry" />
        </mxCell>
        <mxCell id="1VgsUQ58sX3mkb50u65D-47" style="edgeStyle=orthogonalEdgeStyle;rounded=0;orthogonalLoop=1;jettySize=auto;html=1;exitX=0.5;exitY=0;exitDx=0;exitDy=0;entryX=1;entryY=0.25;entryDx=0;entryDy=0;endArrow=circlePlus;endFill=0;" parent="1" source="1VgsUQ58sX3mkb50u65D-28" target="1VgsUQ58sX3mkb50u65D-11" edge="1">
          <mxGeometry relative="1" as="geometry" />
        </mxCell>
        <mxCell id="1VgsUQ58sX3mkb50u65D-48" style="edgeStyle=orthogonalEdgeStyle;rounded=0;orthogonalLoop=1;jettySize=auto;html=1;exitX=0.5;exitY=0;exitDx=0;exitDy=0;entryX=0.75;entryY=1;entryDx=0;entryDy=0;endArrow=classic;endFill=1;dashed=1;" parent="1" source="1VgsUQ58sX3mkb50u65D-21" target="1VgsUQ58sX3mkb50u65D-11" edge="1">
          <mxGeometry relative="1" as="geometry" />
        </mxCell>
        <mxCell id="1VgsUQ58sX3mkb50u65D-50" value="DeriveReqt" style="edgeLabel;html=1;align=center;verticalAlign=middle;resizable=0;points=[];" parent="1VgsUQ58sX3mkb50u65D-48" vertex="1" connectable="0">
          <mxGeometry x="0.3327" y="2" relative="1" as="geometry">
            <mxPoint x="24" y="10" as="offset" />
          </mxGeometry>
        </mxCell>
        <mxCell id="1VgsUQ58sX3mkb50u65D-49" style="edgeStyle=orthogonalEdgeStyle;rounded=0;orthogonalLoop=1;jettySize=auto;html=1;exitX=0.5;exitY=0;exitDx=0;exitDy=0;entryX=0.25;entryY=1;entryDx=0;entryDy=0;endArrow=circlePlus;endFill=0;" parent="1" source="1VgsUQ58sX3mkb50u65D-14" target="1VgsUQ58sX3mkb50u65D-11" edge="1">
          <mxGeometry relative="1" as="geometry" />
        </mxCell>
        <mxCell id="1VgsUQ58sX3mkb50u65D-51" value="" style="fontStyle=1;align=center;verticalAlign=middle;childLayout=stackLayout;horizontal=1;horizontalStack=0;resizeParent=1;resizeParentMax=0;resizeLast=0;marginBottom=0;" parent="1" vertex="1">
          <mxGeometry x="660" width="200" height="120" as="geometry" />
        </mxCell>
        <mxCell id="1VgsUQ58sX3mkb50u65D-52" value="&amp;lt;&amp;lt;requirement&amp;gt;&amp;gt;" style="html=1;align=center;spacing=0;verticalAlign=middle;strokeColor=none;fillColor=none;whiteSpace=wrap;spacingTop=3;" parent="1VgsUQ58sX3mkb50u65D-51" vertex="1">
          <mxGeometry width="200" height="20" as="geometry" />
        </mxCell>
        <mxCell id="1VgsUQ58sX3mkb50u65D-53" value="Installation" style="html=1;align=center;spacing=0;verticalAlign=middle;strokeColor=none;fillColor=none;whiteSpace=wrap;fontStyle=1" parent="1VgsUQ58sX3mkb50u65D-51" vertex="1">
          <mxGeometry y="20" width="200" height="28" as="geometry" />
        </mxCell>
        <mxCell id="1VgsUQ58sX3mkb50u65D-54" value="" style="line;strokeWidth=0.25;fillColor=none;align=left;verticalAlign=middle;spacingTop=-1;spacingLeft=3;spacingRight=3;rotatable=0;labelPosition=right;points=[];portConstraint=eastwest;" parent="1VgsUQ58sX3mkb50u65D-51" vertex="1">
          <mxGeometry y="48" width="200" height="8" as="geometry" />
        </mxCell>
        <mxCell id="1VgsUQ58sX3mkb50u65D-55" value="text=&quot;Le système doit être facile à installer une fois en mer&quot;" style="html=1;align=left;spacing=0;verticalAlign=middle;strokeColor=none;fillColor=none;whiteSpace=wrap;spacingLeft=10;" parent="1VgsUQ58sX3mkb50u65D-51" vertex="1">
          <mxGeometry y="56" width="200" height="44" as="geometry" />
        </mxCell>
        <mxCell id="1VgsUQ58sX3mkb50u65D-56" value="Id=&quot;1.5&quot;" style="html=1;align=left;spacing=0;verticalAlign=middle;strokeColor=none;fillColor=none;whiteSpace=wrap;spacingLeft=10;" parent="1VgsUQ58sX3mkb50u65D-51" vertex="1">
          <mxGeometry y="100" width="200" height="20" as="geometry" />
        </mxCell>
        <mxCell id="1VgsUQ58sX3mkb50u65D-57" value="" style="html=1;align=center;spacing=0;verticalAlign=middle;strokeColor=none;fillColor=none;whiteSpace=wrap;" parent="1VgsUQ58sX3mkb50u65D-51" vertex="1">
          <mxGeometry y="120" width="200" as="geometry" />
        </mxCell>
        <mxCell id="1VgsUQ58sX3mkb50u65D-58" style="edgeStyle=orthogonalEdgeStyle;rounded=0;orthogonalLoop=1;jettySize=auto;html=1;exitX=0;exitY=0.25;exitDx=0;exitDy=0;entryX=1;entryY=0.414;entryDx=0;entryDy=0;entryPerimeter=0;endArrow=circlePlus;endFill=0;" parent="1" source="1VgsUQ58sX3mkb50u65D-55" target="1VgsUQ58sX3mkb50u65D-10" edge="1">
          <mxGeometry relative="1" as="geometry" />
        </mxCell>
        <mxCell id="1VgsUQ58sX3mkb50u65D-59" value="" style="fontStyle=1;align=center;verticalAlign=middle;childLayout=stackLayout;horizontal=1;horizontalStack=0;resizeParent=1;resizeParentMax=0;resizeLast=0;marginBottom=0;" parent="1" vertex="1">
          <mxGeometry x="-100" y="240" width="200" height="140" as="geometry" />
        </mxCell>
        <mxCell id="1VgsUQ58sX3mkb50u65D-60" value="&amp;lt;&amp;lt;PhysicalRequirement&amp;gt;&amp;gt;" style="html=1;align=center;spacing=0;verticalAlign=middle;strokeColor=none;fillColor=none;whiteSpace=wrap;spacingTop=3;" parent="1VgsUQ58sX3mkb50u65D-59" vertex="1">
          <mxGeometry width="200" height="20" as="geometry" />
        </mxCell>
        <mxCell id="1VgsUQ58sX3mkb50u65D-61" value="Place disponible" style="html=1;align=center;spacing=0;verticalAlign=middle;strokeColor=none;fillColor=none;whiteSpace=wrap;fontStyle=1" parent="1VgsUQ58sX3mkb50u65D-59" vertex="1">
          <mxGeometry y="20" width="200" height="28" as="geometry" />
        </mxCell>
        <mxCell id="1VgsUQ58sX3mkb50u65D-62" value="" style="line;strokeWidth=0.25;fillColor=none;align=left;verticalAlign=middle;spacingTop=-1;spacingLeft=3;spacingRight=3;rotatable=0;labelPosition=right;points=[];portConstraint=eastwest;" parent="1VgsUQ58sX3mkb50u65D-59" vertex="1">
          <mxGeometry y="48" width="200" height="8" as="geometry" />
        </mxCell>
        <mxCell id="1VgsUQ58sX3mkb50u65D-63" value="text=&quot;Le système doit être capable de rentrer dans le simulateur de vague (X*Y*Z)&quot;" style="html=1;align=left;spacing=0;verticalAlign=middle;strokeColor=none;fillColor=none;whiteSpace=wrap;spacingLeft=10;" parent="1VgsUQ58sX3mkb50u65D-59" vertex="1">
          <mxGeometry y="56" width="200" height="54" as="geometry" />
        </mxCell>
        <mxCell id="1VgsUQ58sX3mkb50u65D-64" value="Id=&quot;1.1.1&quot;" style="html=1;align=left;spacing=0;verticalAlign=middle;strokeColor=none;fillColor=none;whiteSpace=wrap;spacingLeft=10;" parent="1VgsUQ58sX3mkb50u65D-59" vertex="1">
          <mxGeometry y="110" width="200" height="30" as="geometry" />
        </mxCell>
        <mxCell id="1VgsUQ58sX3mkb50u65D-65" value="" style="html=1;align=center;spacing=0;verticalAlign=middle;strokeColor=none;fillColor=none;whiteSpace=wrap;" parent="1VgsUQ58sX3mkb50u65D-59" vertex="1">
          <mxGeometry y="140" width="200" as="geometry" />
        </mxCell>
        <mxCell id="1VgsUQ58sX3mkb50u65D-66" style="edgeStyle=orthogonalEdgeStyle;rounded=0;orthogonalLoop=1;jettySize=auto;html=1;entryX=0;entryY=0.5;entryDx=0;entryDy=0;dashed=1;exitX=0;exitY=0.25;exitDx=0;exitDy=0;" parent="1" source="1VgsUQ58sX3mkb50u65D-63" target="1VgsUQ58sX3mkb50u65D-38" edge="1">
          <mxGeometry relative="1" as="geometry" />
        </mxCell>
        <mxCell id="1VgsUQ58sX3mkb50u65D-67" value="Refine" style="edgeLabel;html=1;align=center;verticalAlign=middle;resizable=0;points=[];" parent="1VgsUQ58sX3mkb50u65D-66" vertex="1" connectable="0">
          <mxGeometry x="0.0057" relative="1" as="geometry">
            <mxPoint y="-13" as="offset" />
          </mxGeometry>
        </mxCell>
        <mxCell id="1VgsUQ58sX3mkb50u65D-68" value="" style="fontStyle=1;align=center;verticalAlign=middle;childLayout=stackLayout;horizontal=1;horizontalStack=0;resizeParent=1;resizeParentMax=0;resizeLast=0;marginBottom=0;" parent="1" vertex="1">
          <mxGeometry x="-100" y="420" width="200" height="140" as="geometry" />
        </mxCell>
        <mxCell id="1VgsUQ58sX3mkb50u65D-69" value="&amp;lt;&amp;lt;PhysicalRequirement&amp;gt;&amp;gt;" style="html=1;align=center;spacing=0;verticalAlign=middle;strokeColor=none;fillColor=none;whiteSpace=wrap;spacingTop=3;" parent="1VgsUQ58sX3mkb50u65D-68" vertex="1">
          <mxGeometry width="200" height="20" as="geometry" />
        </mxCell>
        <mxCell id="1VgsUQ58sX3mkb50u65D-70" value="Matériaux" style="html=1;align=center;spacing=0;verticalAlign=middle;strokeColor=none;fillColor=none;whiteSpace=wrap;fontStyle=1" parent="1VgsUQ58sX3mkb50u65D-68" vertex="1">
          <mxGeometry y="20" width="200" height="28" as="geometry" />
        </mxCell>
        <mxCell id="1VgsUQ58sX3mkb50u65D-71" value="" style="line;strokeWidth=0.25;fillColor=none;align=left;verticalAlign=middle;spacingTop=-1;spacingLeft=3;spacingRight=3;rotatable=0;labelPosition=right;points=[];portConstraint=eastwest;" parent="1VgsUQ58sX3mkb50u65D-68" vertex="1">
          <mxGeometry y="48" width="200" height="8" as="geometry" />
        </mxCell>
        <mxCell id="1VgsUQ58sX3mkb50u65D-72" value="text=&quot;Les matériaux du système doivent être capable de résister aux conditions météorologiques et environnemental&quot;" style="html=1;align=left;spacing=0;verticalAlign=middle;strokeColor=none;fillColor=none;whiteSpace=wrap;spacingLeft=10;" parent="1VgsUQ58sX3mkb50u65D-68" vertex="1">
          <mxGeometry y="56" width="200" height="54" as="geometry" />
        </mxCell>
        <mxCell id="1VgsUQ58sX3mkb50u65D-73" value="Id=&quot;1.2.1&quot;" style="html=1;align=left;spacing=0;verticalAlign=middle;strokeColor=none;fillColor=none;whiteSpace=wrap;spacingLeft=10;" parent="1VgsUQ58sX3mkb50u65D-68" vertex="1">
          <mxGeometry y="110" width="200" height="30" as="geometry" />
        </mxCell>
        <mxCell id="1VgsUQ58sX3mkb50u65D-74" value="" style="html=1;align=center;spacing=0;verticalAlign=middle;strokeColor=none;fillColor=none;whiteSpace=wrap;" parent="1VgsUQ58sX3mkb50u65D-68" vertex="1">
          <mxGeometry y="140" width="200" as="geometry" />
        </mxCell>
        <mxCell id="1VgsUQ58sX3mkb50u65D-84" style="edgeStyle=orthogonalEdgeStyle;rounded=0;orthogonalLoop=1;jettySize=auto;html=1;exitX=1;exitY=0.25;exitDx=0;exitDy=0;entryX=0.25;entryY=1;entryDx=0;entryDy=0;dashed=1;" parent="1" source="1VgsUQ58sX3mkb50u65D-72" target="1VgsUQ58sX3mkb50u65D-18" edge="1">
          <mxGeometry relative="1" as="geometry" />
        </mxCell>
        <mxCell id="1VgsUQ58sX3mkb50u65D-102" value="Refine" style="edgeLabel;html=1;align=center;verticalAlign=middle;resizable=0;points=[];" parent="1VgsUQ58sX3mkb50u65D-84" vertex="1" connectable="0">
          <mxGeometry x="-0.6867" y="-2" relative="1" as="geometry">
            <mxPoint y="-15" as="offset" />
          </mxGeometry>
        </mxCell>
        <mxCell id="1VgsUQ58sX3mkb50u65D-86" value="" style="fontStyle=1;align=center;verticalAlign=middle;childLayout=stackLayout;horizontal=1;horizontalStack=0;resizeParent=1;resizeParentMax=0;resizeLast=0;marginBottom=0;" parent="1" vertex="1">
          <mxGeometry x="-368" y="420" width="200" height="140" as="geometry" />
        </mxCell>
        <mxCell id="1VgsUQ58sX3mkb50u65D-87" value="&amp;lt;&amp;lt;block&lt;span style=&quot;background-color: transparent; color: light-dark(rgb(0, 0, 0), rgb(255, 255, 255));&quot;&gt;&amp;gt;&amp;gt;&lt;/span&gt;" style="html=1;align=center;spacing=0;verticalAlign=middle;strokeColor=none;fillColor=none;whiteSpace=wrap;spacingTop=3;" parent="1VgsUQ58sX3mkb50u65D-86" vertex="1">
          <mxGeometry width="200" height="20" as="geometry" />
        </mxCell>
        <mxCell id="1VgsUQ58sX3mkb50u65D-88" value="Cable" style="html=1;align=center;spacing=0;verticalAlign=middle;strokeColor=none;fillColor=none;whiteSpace=wrap;fontStyle=1" parent="1VgsUQ58sX3mkb50u65D-86" vertex="1">
          <mxGeometry y="20" width="200" height="28" as="geometry" />
        </mxCell>
        <mxCell id="1VgsUQ58sX3mkb50u65D-89" value="" style="line;strokeWidth=0.25;fillColor=none;align=left;verticalAlign=middle;spacingTop=-1;spacingLeft=3;spacingRight=3;rotatable=0;labelPosition=right;points=[];portConstraint=eastwest;" parent="1VgsUQ58sX3mkb50u65D-86" vertex="1">
          <mxGeometry y="48" width="200" height="8" as="geometry" />
        </mxCell>
        <mxCell id="1VgsUQ58sX3mkb50u65D-90" value="text=&quot;La tige permet de maintenir la bouée dans l&#39;air et doit donc être assez solide pour la maintenir en cas de tempête&quot;" style="html=1;align=left;spacing=0;verticalAlign=middle;strokeColor=none;fillColor=none;whiteSpace=wrap;spacingLeft=10;" parent="1VgsUQ58sX3mkb50u65D-86" vertex="1">
          <mxGeometry y="56" width="200" height="54" as="geometry" />
        </mxCell>
        <mxCell id="1VgsUQ58sX3mkb50u65D-91" value="Id=&quot;1.2.1.1&quot;" style="html=1;align=left;spacing=0;verticalAlign=middle;strokeColor=none;fillColor=none;whiteSpace=wrap;spacingLeft=10;" parent="1VgsUQ58sX3mkb50u65D-86" vertex="1">
          <mxGeometry y="110" width="200" height="30" as="geometry" />
        </mxCell>
        <mxCell id="1VgsUQ58sX3mkb50u65D-92" value="" style="html=1;align=center;spacing=0;verticalAlign=middle;strokeColor=none;fillColor=none;whiteSpace=wrap;" parent="1VgsUQ58sX3mkb50u65D-86" vertex="1">
          <mxGeometry y="140" width="200" as="geometry" />
        </mxCell>
        <mxCell id="1VgsUQ58sX3mkb50u65D-93" value="" style="fontStyle=1;align=center;verticalAlign=middle;childLayout=stackLayout;horizontal=1;horizontalStack=0;resizeParent=1;resizeParentMax=0;resizeLast=0;marginBottom=0;" parent="1" vertex="1">
          <mxGeometry x="-360" y="620" width="200" height="140" as="geometry" />
        </mxCell>
        <mxCell id="1VgsUQ58sX3mkb50u65D-94" value="&amp;lt;&amp;lt;block&amp;gt;&amp;gt;" style="html=1;align=center;spacing=0;verticalAlign=middle;strokeColor=none;fillColor=none;whiteSpace=wrap;spacingTop=3;" parent="1VgsUQ58sX3mkb50u65D-93" vertex="1">
          <mxGeometry width="200" height="20" as="geometry" />
        </mxCell>
        <mxCell id="1VgsUQ58sX3mkb50u65D-95" value="Coque exterieur" style="html=1;align=center;spacing=0;verticalAlign=middle;strokeColor=none;fillColor=none;whiteSpace=wrap;fontStyle=1" parent="1VgsUQ58sX3mkb50u65D-93" vertex="1">
          <mxGeometry y="20" width="200" height="28" as="geometry" />
        </mxCell>
        <mxCell id="1VgsUQ58sX3mkb50u65D-96" value="" style="line;strokeWidth=0.25;fillColor=none;align=left;verticalAlign=middle;spacingTop=-1;spacingLeft=3;spacingRight=3;rotatable=0;labelPosition=right;points=[];portConstraint=eastwest;" parent="1VgsUQ58sX3mkb50u65D-93" vertex="1">
          <mxGeometry y="48" width="200" height="8" as="geometry" />
        </mxCell>
        <mxCell id="1VgsUQ58sX3mkb50u65D-97" value="text=&quot;Les matériaux en contact avec l&#39;environnement doivent être suffisament robuste pour ne pas se dégrader&quot;" style="html=1;align=left;spacing=0;verticalAlign=middle;strokeColor=none;fillColor=none;whiteSpace=wrap;spacingLeft=10;" parent="1VgsUQ58sX3mkb50u65D-93" vertex="1">
          <mxGeometry y="56" width="200" height="54" as="geometry" />
        </mxCell>
        <mxCell id="1VgsUQ58sX3mkb50u65D-98" value="Id=&quot;1.2.1.2&quot;" style="html=1;align=left;spacing=0;verticalAlign=middle;strokeColor=none;fillColor=none;whiteSpace=wrap;spacingLeft=10;" parent="1VgsUQ58sX3mkb50u65D-93" vertex="1">
          <mxGeometry y="110" width="200" height="30" as="geometry" />
        </mxCell>
        <mxCell id="1VgsUQ58sX3mkb50u65D-99" value="" style="html=1;align=center;spacing=0;verticalAlign=middle;strokeColor=none;fillColor=none;whiteSpace=wrap;" parent="1VgsUQ58sX3mkb50u65D-93" vertex="1">
          <mxGeometry y="140" width="200" as="geometry" />
        </mxCell>
        <mxCell id="1VgsUQ58sX3mkb50u65D-100" style="edgeStyle=orthogonalEdgeStyle;rounded=0;orthogonalLoop=1;jettySize=auto;html=1;exitX=1;exitY=0;exitDx=0;exitDy=0;entryX=0;entryY=0;entryDx=0;entryDy=0;dashed=1;" parent="1" source="1VgsUQ58sX3mkb50u65D-95" target="1VgsUQ58sX3mkb50u65D-73" edge="1">
          <mxGeometry relative="1" as="geometry">
            <Array as="points">
              <mxPoint x="-160" y="670" />
              <mxPoint x="-120" y="670" />
              <mxPoint x="-120" y="530" />
            </Array>
          </mxGeometry>
        </mxCell>
        <mxCell id="1VgsUQ58sX3mkb50u65D-107" value="Satisfy" style="edgeLabel;html=1;align=center;verticalAlign=middle;resizable=0;points=[];" parent="1VgsUQ58sX3mkb50u65D-100" vertex="1" connectable="0">
          <mxGeometry x="-0.5235" y="-1" relative="1" as="geometry">
            <mxPoint x="-10" y="-11" as="offset" />
          </mxGeometry>
        </mxCell>
        <mxCell id="1VgsUQ58sX3mkb50u65D-101" style="edgeStyle=orthogonalEdgeStyle;rounded=0;orthogonalLoop=1;jettySize=auto;html=1;exitX=1;exitY=0.25;exitDx=0;exitDy=0;entryX=0;entryY=0.25;entryDx=0;entryDy=0;dashed=1;" parent="1" source="1VgsUQ58sX3mkb50u65D-90" target="1VgsUQ58sX3mkb50u65D-72" edge="1">
          <mxGeometry relative="1" as="geometry" />
        </mxCell>
        <mxCell id="1VgsUQ58sX3mkb50u65D-105" value="Satisfy" style="text;html=1;align=center;verticalAlign=middle;resizable=0;points=[];autosize=1;strokeColor=none;fillColor=none;" parent="1" vertex="1">
          <mxGeometry x="-160" y="468" width="60" height="30" as="geometry" />
        </mxCell>
        <mxCell id="1VgsUQ58sX3mkb50u65D-127" value="" style="fontStyle=1;align=center;verticalAlign=middle;childLayout=stackLayout;horizontal=1;horizontalStack=0;resizeParent=1;resizeParentMax=0;resizeLast=0;marginBottom=0;" parent="1" vertex="1">
          <mxGeometry x="680" y="550" width="200" height="130" as="geometry" />
        </mxCell>
        <mxCell id="1VgsUQ58sX3mkb50u65D-128" value="&amp;lt;&amp;lt;block&lt;span style=&quot;background-color: transparent; color: light-dark(rgb(0, 0, 0), rgb(255, 255, 255));&quot;&gt;&amp;gt;&amp;gt;&lt;/span&gt;" style="html=1;align=center;spacing=0;verticalAlign=middle;strokeColor=none;fillColor=none;whiteSpace=wrap;spacingTop=3;" parent="1VgsUQ58sX3mkb50u65D-127" vertex="1">
          <mxGeometry width="200" height="20" as="geometry" />
        </mxCell>
        <mxCell id="1VgsUQ58sX3mkb50u65D-129" value="Accéléromètre" style="html=1;align=center;spacing=0;verticalAlign=middle;strokeColor=none;fillColor=none;whiteSpace=wrap;fontStyle=1" parent="1VgsUQ58sX3mkb50u65D-127" vertex="1">
          <mxGeometry y="20" width="200" height="28" as="geometry" />
        </mxCell>
        <mxCell id="1VgsUQ58sX3mkb50u65D-130" value="" style="line;strokeWidth=0.25;fillColor=none;align=left;verticalAlign=middle;spacingTop=-1;spacingLeft=3;spacingRight=3;rotatable=0;labelPosition=right;points=[];portConstraint=eastwest;" parent="1VgsUQ58sX3mkb50u65D-127" vertex="1">
          <mxGeometry y="48" width="200" height="8" as="geometry" />
        </mxCell>
        <mxCell id="1VgsUQ58sX3mkb50u65D-131" value="text=&quot;Pour recueillir les informations dont on a besoin on utilisera un ADXL345&quot;" style="html=1;align=left;spacing=0;verticalAlign=middle;strokeColor=none;fillColor=none;whiteSpace=wrap;spacingLeft=10;" parent="1VgsUQ58sX3mkb50u65D-127" vertex="1">
          <mxGeometry y="56" width="200" height="44" as="geometry" />
        </mxCell>
        <mxCell id="1VgsUQ58sX3mkb50u65D-132" value="Id=&quot;1.3.2&quot;" style="html=1;align=left;spacing=0;verticalAlign=middle;strokeColor=none;fillColor=none;whiteSpace=wrap;spacingLeft=10;" parent="1VgsUQ58sX3mkb50u65D-127" vertex="1">
          <mxGeometry y="100" width="200" height="30" as="geometry" />
        </mxCell>
        <mxCell id="1VgsUQ58sX3mkb50u65D-133" value="" style="html=1;align=center;spacing=0;verticalAlign=middle;strokeColor=none;fillColor=none;whiteSpace=wrap;" parent="1VgsUQ58sX3mkb50u65D-127" vertex="1">
          <mxGeometry y="130" width="200" as="geometry" />
        </mxCell>
        <mxCell id="1VgsUQ58sX3mkb50u65D-135" value="" style="fontStyle=1;align=center;verticalAlign=middle;childLayout=stackLayout;horizontal=1;horizontalStack=0;resizeParent=1;resizeParentMax=0;resizeLast=0;marginBottom=0;" parent="1" vertex="1">
          <mxGeometry x="360" y="445" width="200" height="120" as="geometry" />
        </mxCell>
        <mxCell id="1VgsUQ58sX3mkb50u65D-136" value="&amp;lt;&amp;lt;block&lt;span style=&quot;background-color: transparent; color: light-dark(rgb(0, 0, 0), rgb(255, 255, 255));&quot;&gt;&amp;gt;&amp;gt;&lt;/span&gt;" style="html=1;align=center;spacing=0;verticalAlign=middle;strokeColor=none;fillColor=none;whiteSpace=wrap;spacingTop=3;" parent="1VgsUQ58sX3mkb50u65D-135" vertex="1">
          <mxGeometry width="200" height="20" as="geometry" />
        </mxCell>
        <mxCell id="1VgsUQ58sX3mkb50u65D-137" value="Microcontrolleur" style="html=1;align=center;spacing=0;verticalAlign=middle;strokeColor=none;fillColor=none;whiteSpace=wrap;fontStyle=1" parent="1VgsUQ58sX3mkb50u65D-135" vertex="1">
          <mxGeometry y="20" width="200" height="28" as="geometry" />
        </mxCell>
        <mxCell id="1VgsUQ58sX3mkb50u65D-138" value="" style="line;strokeWidth=0.25;fillColor=none;align=left;verticalAlign=middle;spacingTop=-1;spacingLeft=3;spacingRight=3;rotatable=0;labelPosition=right;points=[];portConstraint=eastwest;" parent="1VgsUQ58sX3mkb50u65D-135" vertex="1">
          <mxGeometry y="48" width="200" height="8" as="geometry" />
        </mxCell>
        <mxCell id="1VgsUQ58sX3mkb50u65D-139" value="text=&quot;Pour traiter les informations on utilisera un raspberry PICO W&quot;" style="html=1;align=left;spacing=0;verticalAlign=middle;strokeColor=none;fillColor=none;whiteSpace=wrap;spacingLeft=10;" parent="1VgsUQ58sX3mkb50u65D-135" vertex="1">
          <mxGeometry y="56" width="200" height="34" as="geometry" />
        </mxCell>
        <mxCell id="1VgsUQ58sX3mkb50u65D-140" value="Id=&quot;1.3.1&quot;" style="html=1;align=left;spacing=0;verticalAlign=middle;strokeColor=none;fillColor=none;whiteSpace=wrap;spacingLeft=10;" parent="1VgsUQ58sX3mkb50u65D-135" vertex="1">
          <mxGeometry y="90" width="200" height="30" as="geometry" />
        </mxCell>
        <mxCell id="1VgsUQ58sX3mkb50u65D-141" value="" style="html=1;align=center;spacing=0;verticalAlign=middle;strokeColor=none;fillColor=none;whiteSpace=wrap;" parent="1VgsUQ58sX3mkb50u65D-135" vertex="1">
          <mxGeometry y="120" width="200" as="geometry" />
        </mxCell>
        <mxCell id="1VgsUQ58sX3mkb50u65D-142" style="edgeStyle=orthogonalEdgeStyle;rounded=0;orthogonalLoop=1;jettySize=auto;html=1;exitX=0.5;exitY=0;exitDx=0;exitDy=0;entryX=0.25;entryY=1;entryDx=0;entryDy=0;dashed=1;" parent="1" source="1VgsUQ58sX3mkb50u65D-136" target="1VgsUQ58sX3mkb50u65D-25" edge="1">
          <mxGeometry relative="1" as="geometry" />
        </mxCell>
        <mxCell id="1VgsUQ58sX3mkb50u65D-186" value="Satisfy" style="edgeLabel;html=1;align=center;verticalAlign=middle;resizable=0;points=[];" parent="1VgsUQ58sX3mkb50u65D-142" vertex="1" connectable="0">
          <mxGeometry x="0.1901" y="-2" relative="1" as="geometry">
            <mxPoint x="18" y="8" as="offset" />
          </mxGeometry>
        </mxCell>
        <mxCell id="1VgsUQ58sX3mkb50u65D-143" style="edgeStyle=orthogonalEdgeStyle;rounded=0;orthogonalLoop=1;jettySize=auto;html=1;entryX=0.716;entryY=1.085;entryDx=0;entryDy=0;entryPerimeter=0;dashed=1;" parent="1" source="1VgsUQ58sX3mkb50u65D-128" target="1VgsUQ58sX3mkb50u65D-25" edge="1">
          <mxGeometry relative="1" as="geometry">
            <Array as="points">
              <mxPoint x="620" y="560" />
              <mxPoint x="620" y="393" />
            </Array>
          </mxGeometry>
        </mxCell>
        <mxCell id="1VgsUQ58sX3mkb50u65D-185" value="Satisfy" style="edgeLabel;html=1;align=center;verticalAlign=middle;resizable=0;points=[];" parent="1VgsUQ58sX3mkb50u65D-143" vertex="1" connectable="0">
          <mxGeometry x="0.139" y="3" relative="1" as="geometry">
            <mxPoint x="14" y="-11" as="offset" />
          </mxGeometry>
        </mxCell>
        <mxCell id="1VgsUQ58sX3mkb50u65D-144" value="" style="fontStyle=1;align=center;verticalAlign=middle;childLayout=stackLayout;horizontal=1;horizontalStack=0;resizeParent=1;resizeParentMax=0;resizeLast=0;marginBottom=0;" parent="1" vertex="1">
          <mxGeometry x="430" y="650" width="200" height="136" as="geometry" />
        </mxCell>
        <mxCell id="1VgsUQ58sX3mkb50u65D-145" value="&amp;lt;&amp;lt;requirement&lt;span style=&quot;background-color: transparent; color: light-dark(rgb(0, 0, 0), rgb(255, 255, 255));&quot;&gt;&amp;gt;&amp;gt;&lt;/span&gt;" style="html=1;align=center;spacing=0;verticalAlign=middle;strokeColor=none;fillColor=none;whiteSpace=wrap;spacingTop=3;" parent="1VgsUQ58sX3mkb50u65D-144" vertex="1">
          <mxGeometry width="200" height="20" as="geometry" />
        </mxCell>
        <mxCell id="1VgsUQ58sX3mkb50u65D-146" value="Base de données" style="html=1;align=center;spacing=0;verticalAlign=middle;strokeColor=none;fillColor=none;whiteSpace=wrap;fontStyle=1" parent="1VgsUQ58sX3mkb50u65D-144" vertex="1">
          <mxGeometry y="20" width="200" height="28" as="geometry" />
        </mxCell>
        <mxCell id="1VgsUQ58sX3mkb50u65D-147" value="" style="line;strokeWidth=0.25;fillColor=none;align=left;verticalAlign=middle;spacingTop=-1;spacingLeft=3;spacingRight=3;rotatable=0;labelPosition=right;points=[];portConstraint=eastwest;" parent="1VgsUQ58sX3mkb50u65D-144" vertex="1">
          <mxGeometry y="48" width="200" height="8" as="geometry" />
        </mxCell>
        <mxCell id="1VgsUQ58sX3mkb50u65D-148" value="text=&quot;Pour recueillir les informations de la bouée, on utilisera une base de donnée connecté au PICO W accessible facilement&quot;" style="html=1;align=left;spacing=0;verticalAlign=middle;strokeColor=none;fillColor=none;whiteSpace=wrap;spacingLeft=10;" parent="1VgsUQ58sX3mkb50u65D-144" vertex="1">
          <mxGeometry y="56" width="200" height="50" as="geometry" />
        </mxCell>
        <mxCell id="1VgsUQ58sX3mkb50u65D-149" value="Id=&quot;1.3.3&quot;" style="html=1;align=left;spacing=0;verticalAlign=middle;strokeColor=none;fillColor=none;whiteSpace=wrap;spacingLeft=10;" parent="1VgsUQ58sX3mkb50u65D-144" vertex="1">
          <mxGeometry y="106" width="200" height="30" as="geometry" />
        </mxCell>
        <mxCell id="1VgsUQ58sX3mkb50u65D-150" value="" style="html=1;align=center;spacing=0;verticalAlign=middle;strokeColor=none;fillColor=none;whiteSpace=wrap;" parent="1VgsUQ58sX3mkb50u65D-144" vertex="1">
          <mxGeometry y="136" width="200" as="geometry" />
        </mxCell>
        <mxCell id="1VgsUQ58sX3mkb50u65D-151" value="" style="fontStyle=1;align=center;verticalAlign=middle;childLayout=stackLayout;horizontal=1;horizontalStack=0;resizeParent=1;resizeParentMax=0;resizeLast=0;marginBottom=0;" parent="1" vertex="1">
          <mxGeometry x="140" y="585" width="200" height="130" as="geometry" />
        </mxCell>
        <mxCell id="1VgsUQ58sX3mkb50u65D-152" value="&amp;lt;&amp;lt;requirement&amp;gt;&amp;gt;" style="html=1;align=center;spacing=0;verticalAlign=middle;strokeColor=none;fillColor=none;whiteSpace=wrap;spacingTop=3;" parent="1VgsUQ58sX3mkb50u65D-151" vertex="1">
          <mxGeometry width="200" height="20" as="geometry" />
        </mxCell>
        <mxCell id="1VgsUQ58sX3mkb50u65D-153" value="Protection de la cavité" style="html=1;align=center;spacing=0;verticalAlign=middle;strokeColor=none;fillColor=none;whiteSpace=wrap;fontStyle=1" parent="1VgsUQ58sX3mkb50u65D-151" vertex="1">
          <mxGeometry y="20" width="200" height="28" as="geometry" />
        </mxCell>
        <mxCell id="1VgsUQ58sX3mkb50u65D-154" value="" style="line;strokeWidth=0.25;fillColor=none;align=left;verticalAlign=middle;spacingTop=-1;spacingLeft=3;spacingRight=3;rotatable=0;labelPosition=right;points=[];portConstraint=eastwest;" parent="1VgsUQ58sX3mkb50u65D-151" vertex="1">
          <mxGeometry y="48" width="200" height="8" as="geometry" />
        </mxCell>
        <mxCell id="1VgsUQ58sX3mkb50u65D-155" value="text=&quot;La cavité où se déplace l&#39;aimant doit contenir le moins&amp;nbsp;&lt;div&gt;d&#39;eau possible&quot;&lt;/div&gt;" style="html=1;align=left;spacing=0;verticalAlign=middle;strokeColor=none;fillColor=none;whiteSpace=wrap;spacingLeft=10;" parent="1VgsUQ58sX3mkb50u65D-151" vertex="1">
          <mxGeometry y="56" width="200" height="44" as="geometry" />
        </mxCell>
        <mxCell id="1VgsUQ58sX3mkb50u65D-156" value="Id=&quot;1.2.3&quot;" style="html=1;align=left;spacing=0;verticalAlign=middle;strokeColor=none;fillColor=none;whiteSpace=wrap;spacingLeft=10;" parent="1VgsUQ58sX3mkb50u65D-151" vertex="1">
          <mxGeometry y="100" width="200" height="30" as="geometry" />
        </mxCell>
        <mxCell id="1VgsUQ58sX3mkb50u65D-157" value="" style="html=1;align=center;spacing=0;verticalAlign=middle;strokeColor=none;fillColor=none;whiteSpace=wrap;" parent="1VgsUQ58sX3mkb50u65D-151" vertex="1">
          <mxGeometry y="130" width="200" as="geometry" />
        </mxCell>
        <mxCell id="1VgsUQ58sX3mkb50u65D-158" style="edgeStyle=orthogonalEdgeStyle;rounded=0;orthogonalLoop=1;jettySize=auto;html=1;exitX=0.5;exitY=0;exitDx=0;exitDy=0;entryX=0.5;entryY=1;entryDx=0;entryDy=0;dashed=1;" parent="1" source="1VgsUQ58sX3mkb50u65D-145" target="1VgsUQ58sX3mkb50u65D-140" edge="1">
          <mxGeometry relative="1" as="geometry" />
        </mxCell>
        <mxCell id="1VgsUQ58sX3mkb50u65D-187" value="DeriveReqt" style="edgeLabel;html=1;align=center;verticalAlign=middle;resizable=0;points=[];" parent="1VgsUQ58sX3mkb50u65D-158" vertex="1" connectable="0">
          <mxGeometry x="-0.502" y="1" relative="1" as="geometry">
            <mxPoint x="33" y="-7" as="offset" />
          </mxGeometry>
        </mxCell>
        <mxCell id="1VgsUQ58sX3mkb50u65D-171" value="" style="fontStyle=1;align=center;verticalAlign=middle;childLayout=stackLayout;horizontal=1;horizontalStack=0;resizeParent=1;resizeParentMax=0;resizeLast=0;marginBottom=0;" parent="1" vertex="1">
          <mxGeometry x="900" y="250" width="200" height="140" as="geometry" />
        </mxCell>
        <mxCell id="1VgsUQ58sX3mkb50u65D-172" value="&amp;lt;&amp;lt;PerformanceRequirement&amp;gt;&amp;gt;" style="html=1;align=center;spacing=0;verticalAlign=middle;strokeColor=none;fillColor=none;whiteSpace=wrap;spacingTop=3;" parent="1VgsUQ58sX3mkb50u65D-171" vertex="1">
          <mxGeometry width="200" height="20" as="geometry" />
        </mxCell>
        <mxCell id="1VgsUQ58sX3mkb50u65D-173" value="Efficacité" style="html=1;align=center;spacing=0;verticalAlign=middle;strokeColor=none;fillColor=none;whiteSpace=wrap;fontStyle=1" parent="1VgsUQ58sX3mkb50u65D-171" vertex="1">
          <mxGeometry y="20" width="200" height="28" as="geometry" />
        </mxCell>
        <mxCell id="1VgsUQ58sX3mkb50u65D-174" value="" style="line;strokeWidth=0.25;fillColor=none;align=left;verticalAlign=middle;spacingTop=-1;spacingLeft=3;spacingRight=3;rotatable=0;labelPosition=right;points=[];portConstraint=eastwest;" parent="1VgsUQ58sX3mkb50u65D-171" vertex="1">
          <mxGeometry y="48" width="200" height="8" as="geometry" />
        </mxCell>
        <mxCell id="1VgsUQ58sX3mkb50u65D-175" value="text=&quot;Par rapport à d&#39;autres systèmes énergetique la bouée doit avoir le même voir un meilleur rendement par rapport au coût&quot;" style="html=1;align=left;spacing=0;verticalAlign=middle;strokeColor=none;fillColor=none;whiteSpace=wrap;spacingLeft=10;" parent="1VgsUQ58sX3mkb50u65D-171" vertex="1">
          <mxGeometry y="56" width="200" height="54" as="geometry" />
        </mxCell>
        <mxCell id="1VgsUQ58sX3mkb50u65D-176" value="Id=&quot;1.4.1&quot;" style="html=1;align=left;spacing=0;verticalAlign=middle;strokeColor=none;fillColor=none;whiteSpace=wrap;spacingLeft=10;" parent="1VgsUQ58sX3mkb50u65D-171" vertex="1">
          <mxGeometry y="110" width="200" height="30" as="geometry" />
        </mxCell>
        <mxCell id="1VgsUQ58sX3mkb50u65D-177" value="" style="html=1;align=center;spacing=0;verticalAlign=middle;strokeColor=none;fillColor=none;whiteSpace=wrap;" parent="1VgsUQ58sX3mkb50u65D-171" vertex="1">
          <mxGeometry y="140" width="200" as="geometry" />
        </mxCell>
        <mxCell id="1VgsUQ58sX3mkb50u65D-178" value="" style="fontStyle=1;align=center;verticalAlign=middle;childLayout=stackLayout;horizontal=1;horizontalStack=0;resizeParent=1;resizeParentMax=0;resizeLast=0;marginBottom=0;" parent="1" vertex="1">
          <mxGeometry x="970" y="435" width="200" height="140" as="geometry" />
        </mxCell>
        <mxCell id="1VgsUQ58sX3mkb50u65D-179" value="&amp;lt;&amp;lt;PerformanceRequirement&amp;gt;&amp;gt;" style="html=1;align=center;spacing=0;verticalAlign=middle;strokeColor=none;fillColor=none;whiteSpace=wrap;spacingTop=3;" parent="1VgsUQ58sX3mkb50u65D-178" vertex="1">
          <mxGeometry width="200" height="20" as="geometry" />
        </mxCell>
        <mxCell id="1VgsUQ58sX3mkb50u65D-180" value="Recharger les batteries" style="html=1;align=center;spacing=0;verticalAlign=middle;strokeColor=none;fillColor=none;whiteSpace=wrap;fontStyle=1" parent="1VgsUQ58sX3mkb50u65D-178" vertex="1">
          <mxGeometry y="20" width="200" height="28" as="geometry" />
        </mxCell>
        <mxCell id="1VgsUQ58sX3mkb50u65D-181" value="" style="line;strokeWidth=0.25;fillColor=none;align=left;verticalAlign=middle;spacingTop=-1;spacingLeft=3;spacingRight=3;rotatable=0;labelPosition=right;points=[];portConstraint=eastwest;" parent="1VgsUQ58sX3mkb50u65D-178" vertex="1">
          <mxGeometry y="48" width="200" height="8" as="geometry" />
        </mxCell>
        <mxCell id="1VgsUQ58sX3mkb50u65D-182" value="text=&quot;Le système doit être capable de recharger les batteries nécessaire au bon fonctionnement des systèmes internes&quot;" style="html=1;align=left;spacing=0;verticalAlign=middle;strokeColor=none;fillColor=none;whiteSpace=wrap;spacingLeft=10;" parent="1VgsUQ58sX3mkb50u65D-178" vertex="1">
          <mxGeometry y="56" width="200" height="54" as="geometry" />
        </mxCell>
        <mxCell id="1VgsUQ58sX3mkb50u65D-183" value="Id=&quot;1.4.1&quot;" style="html=1;align=left;spacing=0;verticalAlign=middle;strokeColor=none;fillColor=none;whiteSpace=wrap;spacingLeft=10;" parent="1VgsUQ58sX3mkb50u65D-178" vertex="1">
          <mxGeometry y="110" width="200" height="30" as="geometry" />
        </mxCell>
        <mxCell id="1VgsUQ58sX3mkb50u65D-184" value="" style="html=1;align=center;spacing=0;verticalAlign=middle;strokeColor=none;fillColor=none;whiteSpace=wrap;" parent="1VgsUQ58sX3mkb50u65D-178" vertex="1">
          <mxGeometry y="140" width="200" as="geometry" />
        </mxCell>
        <mxCell id="1VgsUQ58sX3mkb50u65D-188" style="edgeStyle=orthogonalEdgeStyle;rounded=0;orthogonalLoop=1;jettySize=auto;html=1;entryX=0.777;entryY=1.036;entryDx=0;entryDy=0;entryPerimeter=0;dashed=1;" parent="1" source="1VgsUQ58sX3mkb50u65D-182" target="1VgsUQ58sX3mkb50u65D-32" edge="1">
          <mxGeometry relative="1" as="geometry">
            <Array as="points">
              <mxPoint x="820" y="493" />
              <mxPoint x="820" y="391" />
            </Array>
          </mxGeometry>
        </mxCell>
        <mxCell id="1VgsUQ58sX3mkb50u65D-191" value="DeriveReqt" style="edgeLabel;html=1;align=center;verticalAlign=middle;resizable=0;points=[];" parent="1VgsUQ58sX3mkb50u65D-188" vertex="1" connectable="0">
          <mxGeometry x="-0.3714" relative="1" as="geometry">
            <mxPoint x="19" y="-10" as="offset" />
          </mxGeometry>
        </mxCell>
        <mxCell id="1VgsUQ58sX3mkb50u65D-189" style="edgeStyle=orthogonalEdgeStyle;rounded=0;orthogonalLoop=1;jettySize=auto;html=1;entryX=1;entryY=0.5;entryDx=0;entryDy=0;dashed=1;" parent="1" source="1VgsUQ58sX3mkb50u65D-175" target="1VgsUQ58sX3mkb50u65D-31" edge="1">
          <mxGeometry relative="1" as="geometry" />
        </mxCell>
        <mxCell id="1VgsUQ58sX3mkb50u65D-190" value="Refine" style="edgeLabel;html=1;align=center;verticalAlign=middle;resizable=0;points=[];" parent="1VgsUQ58sX3mkb50u65D-189" vertex="1" connectable="0">
          <mxGeometry x="-0.1056" relative="1" as="geometry">
            <mxPoint y="-13" as="offset" />
          </mxGeometry>
        </mxCell>
        <mxCell id="1VgsUQ58sX3mkb50u65D-193" style="edgeStyle=orthogonalEdgeStyle;rounded=0;orthogonalLoop=1;jettySize=auto;html=1;entryX=0.75;entryY=1;entryDx=0;entryDy=0;dashed=1;" parent="1" source="1VgsUQ58sX3mkb50u65D-152" target="1VgsUQ58sX3mkb50u65D-18" edge="1">
          <mxGeometry relative="1" as="geometry" />
        </mxCell>
        <mxCell id="1VgsUQ58sX3mkb50u65D-194" value="Refine" style="edgeLabel;html=1;align=center;verticalAlign=middle;resizable=0;points=[];" parent="1VgsUQ58sX3mkb50u65D-193" vertex="1" connectable="0">
          <mxGeometry x="-0.4349" y="-5" relative="1" as="geometry">
            <mxPoint x="15" y="6" as="offset" />
          </mxGeometry>
        </mxCell>
      </root>
    </mxGraphModel>
  </diagram>
</mxfile>
